<svg xmlns="http://www.w3.org/2000/svg" viewBox="0 0 176 48" width="176" height="48">
  <defs>
    <radialGradient id="haloGradH" cx="50%" cy="50%" r="50%">
      <stop offset="0%" stop-color="#10b981" stop-opacity="0.32"/>
      <stop offset="40%" stop-color="#10b981" stop-opacity="0.10"/>
      <stop offset="75%" stop-color="#10b981" stop-opacity="0.02"/>
      <stop offset="100%" stop-color="#10b981" stop-opacity="0"/>
    </radialGradient>

    <linearGradient id="lineGradH" x1="0%" y1="0%" x2="100%" y2="100%">
      <stop offset="0%" stop-color="#6ee7b7"/>
      <stop offset="35%" stop-color="#34d399"/>
      <stop offset="70%" stop-color="#10b981"/>
      <stop offset="100%" stop-color="#059669"/>
    </linearGradient>

    <radialGradient id="dotGradH" cx="35%" cy="35%" r="70%">
      <stop offset="0%" stop-color="#a7f3d0"/>
      <stop offset="40%" stop-color="#34d399"/>
      <stop offset="100%" stop-color="#059669"/>
    </radialGradient>

    <radialGradient id="coreDotGradH" cx="35%" cy="35%" r="65%">
      <stop offset="0%" stop-color="#d1fae5"/>
      <stop offset="35%" stop-color="#6ee7b7"/>
      <stop offset="75%" stop-color="#10b981"/>
      <stop offset="100%" stop-color="#047857"/>
    </radialGradient>

    <linearGradient id="textGradH" x1="0%" y1="0%" x2="0%" y2="100%">
      <stop offset="0%" stop-color="#ffffff"/>
      <stop offset="100%" stop-color="#d1fae5"/>
    </linearGradient>

    <filter id="softGlowH" x="-80%" y="-80%" width="260%" height="260%">
      <feGaussianBlur stdDeviation="0.6" result="blur"/>
      <feMerge>
        <feMergeNode in="blur"/>
        <feMergeNode in="SourceGraphic"/>
      </feMerge>
    </filter>

    <filter id="coreGlowH" x="-100%" y="-100%" width="300%" height="300%">
      <feGaussianBlur stdDeviation="1.0" result="blur"/>
      <feMerge>
        <feMergeNode in="blur"/>
        <feMergeNode in="SourceGraphic"/>
      </feMerge>
    </filter>
  </defs>

  <!-- Halo behind icon -->
  <circle cx="24" cy="24" r="24" fill="url(#haloGradH)"/>

  <!-- Background data points (telemetry feel) -->
  <g opacity="0.55">
    <circle cx="7" cy="4" r="0.5" fill="#34d399"/>
    <circle cx="44" cy="6" r="0.7" fill="#6ee7b7"/>
    <circle cx="3" cy="16" r="0.45" fill="#10b981"/>
    <circle cx="46" cy="22" r="0.5" fill="#34d399"/>
    <circle cx="2" cy="35" r="0.4" fill="#6ee7b7"/>
    <circle cx="45" cy="40" r="0.55" fill="#10b981"/>
    <circle cx="14" cy="2" r="0.4" fill="#34d399"/>
    <circle cx="33" cy="44" r="0.5" fill="#6ee7b7"/>
    <circle cx="40" cy="13" r="0.35" fill="#34d399"/>
    <circle cx="9" cy="38" r="0.45" fill="#10b981"/>
    <circle cx="17" cy="46" r="0.4" fill="#6ee7b7"/>
    <circle cx="38" cy="28" r="0.35" fill="#34d399"/>
  </g>

  <!-- Data mesh connections -->
  <g opacity="0.12" stroke="#10b981" fill="none" stroke-width="0.15">
    <line x1="7" y1="4" x2="14" y2="2"/>
    <line x1="44" y1="6" x2="40" y2="13"/>
    <line x1="3" y1="16" x2="2" y2="35"/>
    <line x1="46" y1="22" x2="45" y2="40"/>
    <line x1="38" y1="28" x2="45" y2="40"/>
    <line x1="9" y1="38" x2="17" y2="46"/>
  </g>

  <!-- Main neural lines -->
  <path d="M 22.0 44.0 L 26.0 4.0
           M 23.2 32.0 L 6.0 24.0
           M 23.8 26.0 L 41.0 18.0
           M 24.6 18.0 L 10.0 11.0
           M 25.2 12.0 L 36.0 7.0"
        stroke="url(#lineGradH)" stroke-width="2.0" stroke-linecap="round" fill="none"/>

  <!-- Inner highlight on lines -->
  <path d="M 22.0 44.0 L 26.0 4.0
           M 23.2 32.0 L 6.0 24.0
           M 23.8 26.0 L 41.0 18.0
           M 24.6 18.0 L 10.0 11.0
           M 25.2 12.0 L 36.0 7.0"
        stroke="#d1fae5" stroke-width="0.4" stroke-linecap="round" fill="none" opacity="0.5"/>

  <!-- Soft outer glow behind nodes -->
  <g opacity="0.45" filter="url(#softGlowH)">
    <circle cx="22.0" cy="44.0" r="5.5" fill="#10b981"/>
    <circle cx="26.0" cy="4.0" r="3.5" fill="#10b981"/>
    <circle cx="6.0" cy="24.0" r="4.0" fill="#10b981"/>
    <circle cx="41.0" cy="18.0" r="4.0" fill="#10b981"/>
    <circle cx="10.0" cy="11.0" r="4.0" fill="#10b981"/>
    <circle cx="36.0" cy="7.0" r="4.0" fill="#10b981"/>
  </g>

  <!-- 3D node dots -->
  <circle cx="22.0" cy="44.0" r="3.5" fill="url(#coreDotGradH)" filter="url(#coreGlowH)"/>
  <circle cx="26.0" cy="4.0" r="2.0" fill="url(#dotGradH)"/>
  <circle cx="6.0" cy="24.0" r="2.5" fill="url(#dotGradH)"/>
  <circle cx="41.0" cy="18.0" r="2.5" fill="url(#dotGradH)"/>
  <circle cx="10.0" cy="11.0" r="2.5" fill="url(#dotGradH)"/>
  <circle cx="36.0" cy="7.0" r="2.5" fill="url(#dotGradH)"/>

  <!-- Specular highlights -->
  <circle cx="21.2" cy="43.2" r="0.9" fill="#ecfdf5" opacity="0.85"/>
  <circle cx="25.4" cy="3.4" r="0.45" fill="#ecfdf5" opacity="0.7"/>
  <circle cx="5.4" cy="23.4" r="0.55" fill="#ecfdf5" opacity="0.7"/>
  <circle cx="40.4" cy="17.4" r="0.55" fill="#ecfdf5" opacity="0.7"/>
  <circle cx="9.4" cy="10.4" r="0.55" fill="#ecfdf5" opacity="0.7"/>
  <circle cx="35.4" cy="6.4" r="0.55" fill="#ecfdf5" opacity="0.7"/>

  <!-- CropNode wordmark with gradient -->
  <g fill="url(#textGradH)">
    <path d="M391 706Q505 706 590.0 651.0Q675 596 714 495H605Q576 558 521.5 592.0Q467 626 391 626Q318 626 260.0 592.0Q202 558 169.0 495.5Q136 433 136 349Q136 266 169.0 203.5Q202 141 260.0 107.0Q318 73 391 73Q467 73 521.5 106.5Q576 140 605 203H714Q675 103 590.0 48.5Q505 -6 391 -6Q294 -6 214.5 39.5Q135 85 89.0 166.0Q43 247 43 349Q43 451 89.0 532.5Q135 614 214.5 660.0Q294 706 391 706Z" transform="translate(52.00,31.00) scale(0.021490,-0.021490)"/>
    <path d="M345 558V464H321Q168 464 168 298V0H77V548H168V459Q192 506 236.5 532.0Q281 558 345 558Z" transform="translate(68.59,31.00) scale(0.021490,-0.021490)"/>
    <path d="M43 275Q43 359 79.5 423.5Q116 488 179.0 522.5Q242 557 320 557Q398 557 461.0 522.5Q524 488 560.5 424.0Q597 360 597 275Q597 190 559.5 125.5Q522 61 458.0 26.0Q394 -9 316 -9Q239 -9 176.5 26.0Q114 61 78.5 125.5Q43 190 43 275ZM504 275Q504 341 478.0 387.0Q452 433 410.0 455.5Q368 478 319 478Q269 478 227.5 455.5Q186 433 161.0 387.0Q136 341 136 275Q136 208 160.5 162.0Q185 116 226.0 93.5Q267 71 316 71Q365 71 408.0 94.0Q451 117 477.5 163.0Q504 209 504 275Z" transform="translate(76.61,31.00) scale(0.021490,-0.021490)"/>
    <path d="M373 557Q446 557 505.5 522.0Q565 487 599.0 423.5Q633 360 633 276Q633 193 599.0 128.0Q565 63 505.5 27.0Q446 -9 373 -9Q303 -9 249.5 22.5Q196 54 168 101V-260H77V548H168V447Q195 494 248.5 525.5Q302 557 373 557ZM354 478Q304 478 261.5 453.5Q219 429 193.5 382.5Q168 336 168 275Q168 213 193.5 166.5Q219 120 261.5 95.5Q304 71 354 71Q405 71 447.5 95.5Q490 120 515.0 166.5Q540 213 540 276Q540 338 515.0 384.0Q490 430 447.5 454.0Q405 478 354 478Z" transform="translate(90.36,31.00) scale(0.021490,-0.021490)"/>
    <path d="M690 0H519L233 433V0H62V702H233L519 267V702H690Z" transform="translate(105.69,31.00) scale(0.021277,-0.021277)"/>
    <path d="M28 279Q28 365 66.0 430.5Q104 496 170.0 531.0Q236 566 318 566Q400 566 466.0 531.0Q532 496 570.0 430.5Q608 365 608 279Q608 193 569.5 127.5Q531 62 464.5 27.0Q398 -8 316 -8Q234 -8 168.5 27.0Q103 62 65.5 127.0Q28 192 28 279ZM434 279Q434 346 400.5 382.0Q367 418 318 418Q268 418 235.0 382.5Q202 347 202 279Q202 212 234.5 176.0Q267 140 316 140Q365 140 399.5 176.0Q434 212 434 279Z" transform="translate(121.69,31.00) scale(0.021277,-0.021277)"/>
    <path d="M274 566Q329 566 374.5 543.0Q420 520 446 481V740H617V0H446V80Q422 40 377.5 16.0Q333 -8 274 -8Q205 -8 149.0 27.5Q93 63 60.5 128.5Q28 194 28 280Q28 366 60.5 431.0Q93 496 149.0 531.0Q205 566 274 566ZM324 417Q273 417 237.5 380.5Q202 344 202 280Q202 216 237.5 178.5Q273 141 324 141Q375 141 410.5 178.0Q446 215 446 279Q446 343 410.5 380.0Q375 417 324 417Z" transform="translate(135.24,31.00) scale(0.021277,-0.021277)"/>
    <path d="M585 238H198Q202 186 231.5 158.5Q261 131 304 131Q368 131 393 185H575Q561 130 524.5 86.0Q488 42 433.0 17.0Q378 -8 310 -8Q228 -8 164.0 27.0Q100 62 64.0 127.0Q28 192 28 279Q28 366 63.5 431.0Q99 496 163.0 531.0Q227 566 310 566Q391 566 454.0 532.0Q517 498 552.5 435.0Q588 372 588 288Q588 264 585 238ZM413 333Q413 377 383.0 403.0Q353 429 308 429Q265 429 235.5 404.0Q206 379 199 333Z" transform="translate(149.69,31.00) scale(0.021277,-0.021277)"/>
  </g>
</svg>
