<svg xmlns="http://www.w3.org/2000/svg" viewBox="0 0 1024 1024" width="1024" height="1024">
  <defs>
    <radialGradient id="bgGrad" cx="50%" cy="45%" r="65%">
      <stop offset="0%" stop-color="#0f2318"/>
      <stop offset="55%" stop-color="#081611"/>
      <stop offset="100%" stop-color="#020617"/>
    </radialGradient>

    <radialGradient id="glowHalo" cx="50%" cy="50%" r="50%">
      <stop offset="0%" stop-color="#10b981" stop-opacity="0.32"/>
      <stop offset="45%" stop-color="#10b981" stop-opacity="0.10"/>
      <stop offset="75%" stop-color="#10b981" stop-opacity="0.03"/>
      <stop offset="100%" stop-color="#10b981" stop-opacity="0"/>
    </radialGradient>

    <linearGradient id="lineGradApp" x1="0%" y1="0%" x2="100%" y2="100%">
      <stop offset="0%" stop-color="#6ee7b7"/>
      <stop offset="35%" stop-color="#34d399"/>
      <stop offset="70%" stop-color="#10b981"/>
      <stop offset="100%" stop-color="#059669"/>
    </linearGradient>

    <radialGradient id="coreDotApp" cx="35%" cy="35%" r="70%">
      <stop offset="0%" stop-color="#a7f3d0"/>
      <stop offset="45%" stop-color="#34d399"/>
      <stop offset="100%" stop-color="#059669"/>
    </radialGradient>

    <filter id="softGlowApp" x="-80%" y="-80%" width="260%" height="260%">
      <feGaussianBlur stdDeviation="12" result="blur"/>
      <feMerge>
        <feMergeNode in="blur"/>
        <feMergeNode in="SourceGraphic"/>
      </feMerge>
    </filter>
  </defs>

  <!-- Full-bleed background -->
  <rect width="1024" height="1024" fill="url(#bgGrad)"/>

  <!-- Ambient halo -->
  <circle cx="512" cy="512" r="340" fill="url(#glowHalo)"/>

  <!-- Procedurally-placed data dots (500 total, gaussian around center) -->
  <g>
    <circle cx="769" cy="513.2" r="0.5" fill="#6ee7b7" opacity="0.31"/>
    <circle cx="808.8" cy="368" r="0.5" fill="#34d399" opacity="0.28"/>
    <circle cx="790.1" cy="157.9" r="0.5" fill="#10b981" opacity="0.31"/>
    <circle cx="329.7" cy="775.3" r="0.5" fill="#34d399" opacity="0.23"/>
    <circle cx="695" cy="763" r="0.5" fill="#10b981" opacity="0.25"/>
    <circle cx="581.6" cy="565.7" r="0.5" fill="#10b981" opacity="0.18"/>
    <circle cx="499.7" cy="851" r="0.5" fill="#6ee7b7" opacity="0.29"/>
    <circle cx="269.1" cy="448.9" r="0.5" fill="#34d399" opacity="0.27"/>
    <circle cx="262.4" cy="415.9" r="0.5" fill="#6ee7b7" opacity="0.19"/>
    <circle cx="516.2" cy="863.9" r="0.5" fill="#34d399" opacity="0.22"/>
    <circle cx="710.5" cy="420.9" r="0.5" fill="#34d399" opacity="0.32"/>
    <circle cx="551" cy="637.9" r="0.5" fill="#10b981" opacity="0.24"/>
    <circle cx="331.9" cy="488.7" r="0.5" fill="#6ee7b7" opacity="0.19"/>
    <circle cx="664" cy="396.6" r="0.5" fill="#34d399" opacity="0.3"/>
    <circle cx="735.3" cy="176.8" r="0.5" fill="#34d399" opacity="0.33"/>
    <circle cx="588.9" cy="534.8" r="0.5" fill="#34d399" opacity="0.34"/>
    <circle cx="484.4" cy="495.5" r="0.5" fill="#34d399" opacity="0.2"/>
    <circle cx="719.2" cy="671.7" r="0.5" fill="#10b981" opacity="0.25"/>
    <circle cx="780" cy="194.5" r="0.5" fill="#34d399" opacity="0.33"/>
    <circle cx="8" cy="538.4" r="0.5" fill="#10b981" opacity="0.35"/>
    <circle cx="449.9" cy="394.7" r="0.5" fill="#10b981" opacity="0.19"/>
    <circle cx="394.1" cy="343.1" r="0.5" fill="#34d399" opacity="0.26"/>
    <circle cx="288.1" cy="634.6" r="0.5" fill="#6ee7b7" opacity="0.27"/>
    <circle cx="806.6" cy="516.4" r="0.5" fill="#10b981" opacity="0.32"/>
    <circle cx="546.5" cy="940.4" r="0.5" fill="#34d399" opacity="0.34"/>
    <circle cx="567.5" cy="603.6" r="0.5" fill="#10b981" opacity="0.32"/>
    <circle cx="716.9" cy="857.9" r="0.5" fill="#10b981" opacity="0.23"/>
    <circle cx="119.8" cy="683.9" r="0.6" fill="#34d399" opacity="0.2"/>
    <circle cx="210.3" cy="562.5" r="0.6" fill="#10b981" opacity="0.29"/>
    <circle cx="447" cy="236.6" r="0.6" fill="#34d399" opacity="0.33"/>
    <circle cx="711.7" cy="556.3" r="0.6" fill="#10b981" opacity="0.29"/>
    <circle cx="487.7" cy="756.3" r="0.6" fill="#10b981" opacity="0.2"/>
    <circle cx="1016" cy="202.9" r="0.6" fill="#10b981" opacity="0.27"/>
    <circle cx="574.4" cy="492.5" r="0.6" fill="#34d399" opacity="0.26"/>
    <circle cx="683.9" cy="816.3" r="0.6" fill="#10b981" opacity="0.27"/>
    <circle cx="357.5" cy="452" r="0.6" fill="#34d399" opacity="0.33"/>
    <circle cx="604.6" cy="372.2" r="0.6" fill="#34d399" opacity="0.2"/>
    <circle cx="394.9" cy="371.9" r="0.6" fill="#6ee7b7" opacity="0.29"/>
    <circle cx="998.3" cy="58.9" r="0.6" fill="#6ee7b7" opacity="0.34"/>
    <circle cx="528.9" cy="433.8" r="0.6" fill="#10b981" opacity="0.29"/>
    <circle cx="568.9" cy="373.1" r="0.6" fill="#34d399" opacity="0.22"/>
    <circle cx="41.4" cy="354.1" r="0.6" fill="#10b981" opacity="0.23"/>
    <circle cx="370.5" cy="518.5" r="0.6" fill="#10b981" opacity="0.3"/>
    <circle cx="922.6" cy="540.6" r="0.6" fill="#10b981" opacity="0.23"/>
    <circle cx="549" cy="536" r="0.6" fill="#10b981" opacity="0.19"/>
    <circle cx="602.9" cy="479.8" r="0.6" fill="#34d399" opacity="0.32"/>
    <circle cx="877.6" cy="403.6" r="0.6" fill="#10b981" opacity="0.22"/>
    <circle cx="320.6" cy="512.5" r="0.6" fill="#10b981" opacity="0.3"/>
    <circle cx="533.5" cy="326.1" r="0.6" fill="#34d399" opacity="0.22"/>
    <circle cx="240.9" cy="689.9" r="0.6" fill="#10b981" opacity="0.22"/>
    <circle cx="444.4" cy="325.8" r="0.6" fill="#10b981" opacity="0.34"/>
    <circle cx="479.3" cy="346.1" r="0.6" fill="#10b981" opacity="0.35"/>
    <circle cx="488.7" cy="491.1" r="0.6" fill="#10b981" opacity="0.3"/>
    <circle cx="46.3" cy="382.4" r="0.6" fill="#10b981" opacity="0.26"/>
    <circle cx="387.7" cy="619.8" r="0.6" fill="#10b981" opacity="0.32"/>
    <circle cx="478.2" cy="635.5" r="0.6" fill="#10b981" opacity="0.33"/>
    <circle cx="658.8" cy="725.4" r="0.6" fill="#10b981" opacity="0.19"/>
    <circle cx="253.5" cy="579.8" r="0.6" fill="#10b981" opacity="0.24"/>
    <circle cx="415" cy="855.1" r="0.6" fill="#10b981" opacity="0.24"/>
    <circle cx="193" cy="736.9" r="0.6" fill="#34d399" opacity="0.25"/>
    <circle cx="641.7" cy="1016" r="0.6" fill="#10b981" opacity="0.35"/>
    <circle cx="570.4" cy="611.1" r="0.7" fill="#10b981" opacity="0.34"/>
    <circle cx="353.4" cy="426.1" r="0.7" fill="#6ee7b7" opacity="0.33"/>
    <circle cx="604.1" cy="706" r="0.7" fill="#34d399" opacity="0.29"/>
    <circle cx="571.2" cy="456.1" r="0.7" fill="#34d399" opacity="0.28"/>
    <circle cx="886.2" cy="936.9" r="0.7" fill="#10b981" opacity="0.25"/>
    <circle cx="263.5" cy="725.1" r="0.7" fill="#10b981" opacity="0.23"/>
    <circle cx="458.4" cy="592" r="0.7" fill="#10b981" opacity="0.21"/>
    <circle cx="390.6" cy="345.7" r="0.7" fill="#10b981" opacity="0.25"/>
    <circle cx="586" cy="436.9" r="0.7" fill="#34d399" opacity="0.25"/>
    <circle cx="730.2" cy="617.8" r="0.7" fill="#10b981" opacity="0.19"/>
    <circle cx="361" cy="719.7" r="0.7" fill="#34d399" opacity="0.23"/>
    <circle cx="100.8" cy="807.8" r="0.7" fill="#34d399" opacity="0.24"/>
    <circle cx="673.7" cy="632.7" r="0.7" fill="#34d399" opacity="0.22"/>
    <circle cx="651.9" cy="419.5" r="0.7" fill="#34d399" opacity="0.29"/>
    <circle cx="250.7" cy="510.6" r="0.7" fill="#6ee7b7" opacity="0.33"/>
    <circle cx="252" cy="397.1" r="0.7" fill="#10b981" opacity="0.34"/>
    <circle cx="133.5" cy="407.7" r="0.7" fill="#34d399" opacity="0.24"/>
    <circle cx="530.7" cy="735.9" r="0.7" fill="#10b981" opacity="0.3"/>
    <circle cx="371.1" cy="761.7" r="0.7" fill="#10b981" opacity="0.21"/>
    <circle cx="503.1" cy="496.2" r="0.7" fill="#34d399" opacity="0.25"/>
    <circle cx="220.4" cy="542" r="0.7" fill="#6ee7b7" opacity="0.23"/>
    <circle cx="762.9" cy="626.5" r="0.7" fill="#10b981" opacity="0.18"/>
    <circle cx="334.8" cy="381.9" r="0.7" fill="#10b981" opacity="0.21"/>
    <circle cx="842.5" cy="507.7" r="0.7" fill="#34d399" opacity="0.32"/>
    <circle cx="8" cy="932.6" r="0.7" fill="#34d399" opacity="0.34"/>
    <circle cx="403.7" cy="562.4" r="0.7" fill="#6ee7b7" opacity="0.18"/>
    <circle cx="8" cy="159.3" r="0.7" fill="#34d399" opacity="0.21"/>
    <circle cx="652.5" cy="818.5" r="0.7" fill="#10b981" opacity="0.19"/>
    <circle cx="262.3" cy="332.9" r="0.7" fill="#10b981" opacity="0.22"/>
    <circle cx="435.7" cy="275.6" r="0.7" fill="#10b981" opacity="0.24"/>
    <circle cx="313.7" cy="384.9" r="0.7" fill="#10b981" opacity="0.2"/>
    <circle cx="249.4" cy="529.4" r="0.7" fill="#10b981" opacity="0.35"/>
    <circle cx="968.4" cy="658.2" r="0.7" fill="#10b981" opacity="0.32"/>
    <circle cx="354.1" cy="498.4" r="0.7" fill="#10b981" opacity="0.26"/>
    <circle cx="667.8" cy="721.9" r="0.7" fill="#34d399" opacity="0.26"/>
    <circle cx="863" cy="482.2" r="0.7" fill="#10b981" opacity="0.31"/>
    <circle cx="622.1" cy="265.9" r="0.7" fill="#34d399" opacity="0.32"/>
    <circle cx="60" cy="866.4" r="0.7" fill="#10b981" opacity="0.24"/>
    <circle cx="791.5" cy="444.9" r="0.7" fill="#34d399" opacity="0.25"/>
    <circle cx="540" cy="696.3" r="0.7" fill="#10b981" opacity="0.2"/>
    <circle cx="220.4" cy="831.8" r="0.7" fill="#6ee7b7" opacity="0.32"/>
    <circle cx="314" cy="723.5" r="0.7" fill="#6ee7b7" opacity="0.19"/>
    <circle cx="155.8" cy="415.6" r="0.7" fill="#10b981" opacity="0.18"/>
    <circle cx="680.1" cy="552.7" r="0.7" fill="#34d399" opacity="0.21"/>
    <circle cx="427.9" cy="138" r="0.7" fill="#34d399" opacity="0.27"/>
    <circle cx="714" cy="779.9" r="0.7" fill="#10b981" opacity="0.34"/>
    <circle cx="712.5" cy="774.9" r="0.7" fill="#34d399" opacity="0.28"/>
    <circle cx="508.5" cy="401.1" r="0.8" fill="#34d399" opacity="0.24"/>
    <circle cx="520.7" cy="356.6" r="0.8" fill="#10b981" opacity="0.19"/>
    <circle cx="741.1" cy="647.1" r="0.8" fill="#6ee7b7" opacity="0.26"/>
    <circle cx="351.6" cy="928" r="0.8" fill="#10b981" opacity="0.19"/>
    <circle cx="467" cy="64.1" r="0.8" fill="#10b981" opacity="0.26"/>
    <circle cx="604" cy="671" r="0.8" fill="#10b981" opacity="0.26"/>
    <circle cx="550.8" cy="257" r="0.8" fill="#34d399" opacity="0.19"/>
    <circle cx="253.4" cy="704.3" r="0.8" fill="#34d399" opacity="0.27"/>
    <circle cx="988.2" cy="321.1" r="0.8" fill="#6ee7b7" opacity="0.32"/>
    <circle cx="466.9" cy="475" r="0.8" fill="#34d399" opacity="0.29"/>
    <circle cx="510.6" cy="341.3" r="0.8" fill="#6ee7b7" opacity="0.23"/>
    <circle cx="379.4" cy="563.5" r="0.8" fill="#10b981" opacity="0.21"/>
    <circle cx="575.4" cy="741.7" r="0.8" fill="#34d399" opacity="0.25"/>
    <circle cx="336.5" cy="785.7" r="0.8" fill="#10b981" opacity="0.23"/>
    <circle cx="397.9" cy="478.3" r="0.8" fill="#10b981" opacity="0.3"/>
    <circle cx="258.9" cy="8" r="0.8" fill="#34d399" opacity="0.34"/>
    <circle cx="435.4" cy="500.6" r="0.8" fill="#6ee7b7" opacity="0.25"/>
    <circle cx="555" cy="910.9" r="0.8" fill="#10b981" opacity="0.28"/>
    <circle cx="1016" cy="8" r="0.8" fill="#34d399" opacity="0.31"/>
    <circle cx="344.6" cy="409.4" r="0.8" fill="#6ee7b7" opacity="0.22"/>
    <circle cx="861.9" cy="523.3" r="0.8" fill="#34d399" opacity="0.29"/>
    <circle cx="333.4" cy="768.6" r="0.8" fill="#34d399" opacity="0.25"/>
    <circle cx="547" cy="444.7" r="0.8" fill="#10b981" opacity="0.27"/>
    <circle cx="552.5" cy="453.2" r="0.8" fill="#10b981" opacity="0.19"/>
    <circle cx="451.2" cy="368.2" r="0.8" fill="#10b981" opacity="0.22"/>
    <circle cx="451.7" cy="374.9" r="0.8" fill="#6ee7b7" opacity="0.25"/>
    <circle cx="621.3" cy="925.3" r="0.8" fill="#34d399" opacity="0.2"/>
    <circle cx="724.5" cy="456.1" r="0.8" fill="#10b981" opacity="0.23"/>
    <circle cx="8" cy="240.9" r="0.8" fill="#10b981" opacity="0.33"/>
    <circle cx="580.1" cy="525.3" r="0.8" fill="#6ee7b7" opacity="0.21"/>
    <circle cx="236.4" cy="352.1" r="0.8" fill="#10b981" opacity="0.31"/>
    <circle cx="521.6" cy="179.4" r="0.8" fill="#34d399" opacity="0.34"/>
    <circle cx="701.5" cy="497.6" r="0.8" fill="#10b981" opacity="0.27"/>
    <circle cx="408.8" cy="440.3" r="0.8" fill="#10b981" opacity="0.33"/>
    <circle cx="286.9" cy="683.8" r="0.8" fill="#6ee7b7" opacity="0.2"/>
    <circle cx="484.3" cy="451.8" r="0.8" fill="#10b981" opacity="0.24"/>
    <circle cx="542.7" cy="205.3" r="0.8" fill="#10b981" opacity="0.27"/>
    <circle cx="1016" cy="629.7" r="0.8" fill="#10b981" opacity="0.25"/>
    <circle cx="544.8" cy="741.8" r="0.8" fill="#10b981" opacity="0.2"/>
    <circle cx="71.9" cy="258.4" r="0.8" fill="#34d399" opacity="0.25"/>
    <circle cx="330.7" cy="619.3" r="0.8" fill="#6ee7b7" opacity="0.21"/>
    <circle cx="206.4" cy="781.1" r="0.8" fill="#10b981" opacity="0.24"/>
    <circle cx="388.8" cy="854.4" r="0.8" fill="#34d399" opacity="0.25"/>
    <circle cx="8" cy="519.5" r="0.8" fill="#34d399" opacity="0.31"/>
    <circle cx="439.6" cy="443.4" r="0.8" fill="#34d399" opacity="0.21"/>
    <circle cx="317.2" cy="533.1" r="0.8" fill="#6ee7b7" opacity="0.31"/>
    <circle cx="218" cy="363.7" r="0.9" fill="#10b981" opacity="0.29"/>
    <circle cx="314" cy="526.3" r="0.9" fill="#10b981" opacity="0.28"/>
    <circle cx="497.5" cy="304.9" r="0.9" fill="#10b981" opacity="0.35"/>
    <circle cx="782.4" cy="374" r="0.9" fill="#10b981" opacity="0.3"/>
    <circle cx="1016" cy="1014.9" r="0.9" fill="#34d399" opacity="0.19"/>
    <circle cx="555.7" cy="324.2" r="0.9" fill="#10b981" opacity="0.29"/>
    <circle cx="373.4" cy="220.9" r="0.9" fill="#6ee7b7" opacity="0.18"/>
    <circle cx="135.8" cy="571.1" r="0.9" fill="#34d399" opacity="0.31"/>
    <circle cx="355.3" cy="43" r="0.9" fill="#34d399" opacity="0.19"/>
    <circle cx="379.4" cy="453.7" r="0.9" fill="#34d399" opacity="0.19"/>
    <circle cx="463.3" cy="777.1" r="0.9" fill="#10b981" opacity="0.29"/>
    <circle cx="718.9" cy="572.7" r="0.9" fill="#10b981" opacity="0.31"/>
    <circle cx="301.4" cy="702.6" r="0.9" fill="#34d399" opacity="0.32"/>
    <circle cx="716.5" cy="617.5" r="0.9" fill="#10b981" opacity="0.32"/>
    <circle cx="206.8" cy="479.3" r="0.9" fill="#34d399" opacity="0.31"/>
    <circle cx="252.1" cy="681.8" r="0.9" fill="#34d399" opacity="0.33"/>
    <circle cx="531" cy="578.2" r="0.9" fill="#10b981" opacity="0.26"/>
    <circle cx="804.9" cy="456.8" r="0.9" fill="#6ee7b7" opacity="0.35"/>
    <circle cx="185" cy="757.5" r="0.9" fill="#10b981" opacity="0.21"/>
    <circle cx="256.4" cy="195.8" r="0.9" fill="#10b981" opacity="0.34"/>
    <circle cx="316.7" cy="661.1" r="0.9" fill="#10b981" opacity="0.3"/>
    <circle cx="428" cy="268.9" r="0.9" fill="#6ee7b7" opacity="0.3"/>
    <circle cx="681.1" cy="666" r="0.9" fill="#34d399" opacity="0.26"/>
    <circle cx="198.5" cy="681.9" r="0.9" fill="#34d399" opacity="0.29"/>
    <circle cx="272.4" cy="8" r="0.9" fill="#6ee7b7" opacity="0.3"/>
    <circle cx="376.7" cy="183.1" r="0.9" fill="#34d399" opacity="0.3"/>
    <circle cx="90.1" cy="346" r="0.9" fill="#10b981" opacity="0.23"/>
    <circle cx="435.4" cy="533.9" r="0.9" fill="#10b981" opacity="0.25"/>
    <circle cx="769.2" cy="430.1" r="0.9" fill="#34d399" opacity="0.31"/>
    <circle cx="760.5" cy="336.6" r="0.9" fill="#10b981" opacity="0.21"/>
    <circle cx="378.9" cy="133.3" r="0.9" fill="#10b981" opacity="0.23"/>
    <circle cx="549.1" cy="404" r="0.9" fill="#6ee7b7" opacity="0.32"/>
    <circle cx="980.7" cy="924.6" r="0.9" fill="#34d399" opacity="0.3"/>
    <circle cx="565.2" cy="976.8" r="0.9" fill="#10b981" opacity="0.21"/>
    <circle cx="546.9" cy="439.2" r="0.9" fill="#34d399" opacity="0.18"/>
    <circle cx="25.6" cy="471.3" r="0.9" fill="#10b981" opacity="0.29"/>
    <circle cx="676.7" cy="348.5" r="0.9" fill="#10b981" opacity="0.26"/>
    <circle cx="568.4" cy="483.5" r="0.9" fill="#34d399" opacity="0.21"/>
    <circle cx="197" cy="732.2" r="0.9" fill="#6ee7b7" opacity="0.21"/>
    <circle cx="308.6" cy="787" r="0.9" fill="#10b981" opacity="0.23"/>
    <circle cx="932.3" cy="611.7" r="0.9" fill="#34d399" opacity="0.21"/>
    <circle cx="143.3" cy="368.2" r="0.9" fill="#34d399" opacity="0.24"/>
    <circle cx="568.9" cy="1016" r="0.9" fill="#10b981" opacity="0.27"/>
    <circle cx="740.2" cy="858.9" r="1" fill="#10b981" opacity="0.2"/>
    <circle cx="587.1" cy="236.8" r="1" fill="#34d399" opacity="0.23"/>
    <circle cx="359.8" cy="846.7" r="1" fill="#10b981" opacity="0.31"/>
    <circle cx="226.4" cy="693.4" r="1" fill="#34d399" opacity="0.27"/>
    <circle cx="8" cy="315.5" r="1" fill="#6ee7b7" opacity="0.34"/>
    <circle cx="605.1" cy="306.4" r="1" fill="#10b981" opacity="0.34"/>
    <circle cx="598.3" cy="797.2" r="1" fill="#10b981" opacity="0.21"/>
    <circle cx="689.9" cy="8" r="1" fill="#34d399" opacity="0.31"/>
    <circle cx="331" cy="709.8" r="1" fill="#10b981" opacity="0.34"/>
    <circle cx="381.4" cy="956.9" r="1" fill="#6ee7b7" opacity="0.33"/>
    <circle cx="603.6" cy="728.8" r="1" fill="#10b981" opacity="0.2"/>
    <circle cx="382.5" cy="83.6" r="1" fill="#6ee7b7" opacity="0.22"/>
    <circle cx="486.8" cy="616.1" r="1" fill="#34d399" opacity="0.3"/>
    <circle cx="756.1" cy="687.2" r="1" fill="#34d399" opacity="0.33"/>
    <circle cx="630.7" cy="610.5" r="1" fill="#10b981" opacity="0.32"/>
    <circle cx="67.7" cy="392.4" r="1" fill="#34d399" opacity="0.21"/>
    <circle cx="771.3" cy="604.7" r="1" fill="#10b981" opacity="0.23"/>
    <circle cx="516.1" cy="535" r="1" fill="#10b981" opacity="0.21"/>
    <circle cx="576" cy="648.4" r="1" fill="#10b981" opacity="0.25"/>
    <circle cx="195.4" cy="778" r="1" fill="#34d399" opacity="0.31"/>
    <circle cx="491.6" cy="401.9" r="1" fill="#10b981" opacity="0.32"/>
    <circle cx="828.7" cy="713.3" r="1" fill="#10b981" opacity="0.18"/>
    <circle cx="551.2" cy="426.2" r="1" fill="#34d399" opacity="0.33"/>
    <circle cx="793.6" cy="578.2" r="1" fill="#10b981" opacity="0.23"/>
    <circle cx="260.6" cy="746.5" r="1" fill="#34d399" opacity="0.27"/>
    <circle cx="619.8" cy="614.8" r="1" fill="#34d399" opacity="0.26"/>
    <circle cx="176.4" cy="594.9" r="1" fill="#34d399" opacity="0.18"/>
    <circle cx="725.4" cy="534.9" r="1" fill="#6ee7b7" opacity="0.25"/>
    <circle cx="197.3" cy="589" r="1" fill="#10b981" opacity="0.32"/>
    <circle cx="109.5" cy="991.2" r="1" fill="#34d399" opacity="0.31"/>
    <circle cx="418" cy="431.2" r="1" fill="#34d399" opacity="0.27"/>
    <circle cx="838" cy="283.4" r="1" fill="#10b981" opacity="0.24"/>
    <circle cx="600.2" cy="376.6" r="1" fill="#34d399" opacity="0.29"/>
    <circle cx="415" cy="634.6" r="1" fill="#10b981" opacity="0.29"/>
    <circle cx="915.7" cy="352.8" r="1" fill="#34d399" opacity="0.21"/>
    <circle cx="504.1" cy="407.9" r="1" fill="#6ee7b7" opacity="0.28"/>
    <circle cx="242.1" cy="454.5" r="1" fill="#10b981" opacity="0.32"/>
    <circle cx="893.6" cy="612.4" r="1" fill="#34d399" opacity="0.24"/>
    <circle cx="353.6" cy="463.3" r="1" fill="#34d399" opacity="0.28"/>
    <circle cx="795.2" cy="590.1" r="1" fill="#34d399" opacity="0.31"/>
    <circle cx="692.4" cy="396.4" r="1" fill="#10b981" opacity="0.21"/>
    <circle cx="288.1" cy="179.3" r="1.1" fill="#34d399" opacity="0.31"/>
    <circle cx="133.3" cy="905" r="1.1" fill="#34d399" opacity="0.27"/>
    <circle cx="323.6" cy="642.7" r="1.1" fill="#10b981" opacity="0.22"/>
    <circle cx="674.1" cy="606.8" r="1.1" fill="#10b981" opacity="0.45"/>
    <circle cx="512.5" cy="439.6" r="1.1" fill="#34d399" opacity="0.21"/>
    <circle cx="666" cy="734.2" r="1.1" fill="#10b981" opacity="0.22"/>
    <circle cx="655.8" cy="815.2" r="1.1" fill="#10b981" opacity="0.34"/>
    <circle cx="760.9" cy="1014.5" r="1.1" fill="#34d399" opacity="0.26"/>
    <circle cx="434.8" cy="813.4" r="1.1" fill="#10b981" opacity="0.26"/>
    <circle cx="555.2" cy="1016" r="1.1" fill="#6ee7b7" opacity="0.43"/>
    <circle cx="590.2" cy="615.9" r="1.1" fill="#10b981" opacity="0.21"/>
    <circle cx="360.5" cy="301.4" r="1.1" fill="#34d399" opacity="0.19"/>
    <circle cx="440.4" cy="595.1" r="1.1" fill="#34d399" opacity="0.33"/>
    <circle cx="309.3" cy="571.2" r="1.1" fill="#34d399" opacity="0.26"/>
    <circle cx="153.3" cy="939.5" r="1.1" fill="#10b981" opacity="0.36"/>
    <circle cx="842.8" cy="475.8" r="1.1" fill="#34d399" opacity="0.27"/>
    <circle cx="8" cy="406.1" r="1.1" fill="#10b981" opacity="0.31"/>
    <circle cx="315.7" cy="119.4" r="1.1" fill="#10b981" opacity="0.39"/>
    <circle cx="568.8" cy="625.7" r="1.1" fill="#34d399" opacity="0.42"/>
    <circle cx="590.1" cy="502.6" r="1.1" fill="#10b981" opacity="0.19"/>
    <circle cx="707.2" cy="767.1" r="1.1" fill="#34d399" opacity="0.21"/>
    <circle cx="316.7" cy="282.9" r="1.1" fill="#6ee7b7" opacity="0.19"/>
    <circle cx="461.6" cy="364.2" r="1.1" fill="#34d399" opacity="0.22"/>
    <circle cx="731.2" cy="502.3" r="1.1" fill="#10b981" opacity="0.31"/>
    <circle cx="509.9" cy="860.4" r="1.1" fill="#10b981" opacity="0.24"/>
    <circle cx="381.4" cy="459.3" r="1.1" fill="#6ee7b7" opacity="0.25"/>
    <circle cx="963.3" cy="733.6" r="1.1" fill="#10b981" opacity="0.22"/>
    <circle cx="590.2" cy="807.5" r="1.1" fill="#10b981" opacity="0.21"/>
    <circle cx="431.8" cy="456.9" r="1.1" fill="#10b981" opacity="0.32"/>
    <circle cx="654.2" cy="320.7" r="1.1" fill="#10b981" opacity="0.31"/>
    <circle cx="728.5" cy="411" r="1.1" fill="#10b981" opacity="0.26"/>
    <circle cx="374" cy="761" r="1.1" fill="#34d399" opacity="0.36"/>
    <circle cx="469.2" cy="549.2" r="1.1" fill="#34d399" opacity="0.35"/>
    <circle cx="293" cy="432.6" r="1.1" fill="#6ee7b7" opacity="0.41"/>
    <circle cx="228.4" cy="633.3" r="1.1" fill="#10b981" opacity="0.33"/>
    <circle cx="526" cy="858.5" r="1.1" fill="#34d399" opacity="0.26"/>
    <circle cx="438.7" cy="359.1" r="1.2" fill="#6ee7b7" opacity="0.28"/>
    <circle cx="617.1" cy="970.2" r="1.2" fill="#10b981" opacity="0.35"/>
    <circle cx="366.6" cy="178.8" r="1.2" fill="#34d399" opacity="0.39"/>
    <circle cx="246.4" cy="260.2" r="1.2" fill="#6ee7b7" opacity="0.28"/>
    <circle cx="14.2" cy="8" r="1.2" fill="#34d399" opacity="0.38"/>
    <circle cx="971.5" cy="8" r="1.2" fill="#34d399" opacity="0.44"/>
    <circle cx="241.6" cy="339.6" r="1.2" fill="#6ee7b7" opacity="0.43"/>
    <circle cx="584.3" cy="813.8" r="1.2" fill="#10b981" opacity="0.43"/>
    <circle cx="156.2" cy="543.1" r="1.2" fill="#34d399" opacity="0.41"/>
    <circle cx="113.3" cy="645" r="1.2" fill="#6ee7b7" opacity="0.36"/>
    <circle cx="598" cy="714.4" r="1.2" fill="#6ee7b7" opacity="0.41"/>
    <circle cx="573.4" cy="731.3" r="1.2" fill="#6ee7b7" opacity="0.41"/>
    <circle cx="571.6" cy="922.6" r="1.2" fill="#6ee7b7" opacity="0.43"/>
    <circle cx="873" cy="317.1" r="1.2" fill="#10b981" opacity="0.39"/>
    <circle cx="195.2" cy="105.9" r="1.2" fill="#10b981" opacity="0.3"/>
    <circle cx="554.5" cy="289.5" r="1.3" fill="#10b981" opacity="0.33"/>
    <circle cx="985.8" cy="655.7" r="1.3" fill="#10b981" opacity="0.39"/>
    <circle cx="780.6" cy="444.6" r="1.3" fill="#6ee7b7" opacity="0.36"/>
    <circle cx="454.1" cy="392.4" r="1.3" fill="#10b981" opacity="0.42"/>
    <circle cx="450.3" cy="390.5" r="1.3" fill="#34d399" opacity="0.43"/>
    <circle cx="698.8" cy="294.3" r="1.3" fill="#34d399" opacity="0.29"/>
    <circle cx="303.6" cy="510.9" r="1.3" fill="#34d399" opacity="0.37"/>
    <circle cx="152.5" cy="337.1" r="1.3" fill="#10b981" opacity="0.34"/>
    <circle cx="680.8" cy="275.5" r="1.3" fill="#10b981" opacity="0.39"/>
    <circle cx="157.9" cy="518.6" r="1.3" fill="#10b981" opacity="0.31"/>
    <circle cx="647.5" cy="607" r="1.3" fill="#6ee7b7" opacity="0.28"/>
    <circle cx="522.7" cy="865.9" r="1.3" fill="#34d399" opacity="0.27"/>
    <circle cx="443.2" cy="637.3" r="1.3" fill="#6ee7b7" opacity="0.33"/>
    <circle cx="350" cy="257.9" r="1.4" fill="#34d399" opacity="0.45"/>
    <circle cx="722.3" cy="591" r="1.4" fill="#10b981" opacity="0.43"/>
    <circle cx="394.6" cy="553" r="1.4" fill="#34d399" opacity="0.27"/>
    <circle cx="423.5" cy="464.9" r="1.4" fill="#6ee7b7" opacity="0.3"/>
    <circle cx="385.1" cy="572.3" r="1.4" fill="#10b981" opacity="0.4"/>
    <circle cx="8" cy="567.8" r="1.4" fill="#34d399" opacity="0.27"/>
    <circle cx="676.1" cy="678.4" r="1.4" fill="#10b981" opacity="0.38"/>
    <circle cx="491.4" cy="501.2" r="1.4" fill="#10b981" opacity="0.26"/>
    <circle cx="337.1" cy="463.7" r="1.4" fill="#10b981" opacity="0.34"/>
    <circle cx="812.2" cy="544.3" r="1.4" fill="#10b981" opacity="0.27"/>
    <circle cx="343.3" cy="489.7" r="1.4" fill="#34d399" opacity="0.42"/>
    <circle cx="841.7" cy="462.2" r="1.4" fill="#6ee7b7" opacity="0.26"/>
    <circle cx="410.9" cy="787.2" r="1.4" fill="#34d399" opacity="0.37"/>
    <circle cx="1016" cy="744.9" r="1.4" fill="#10b981" opacity="0.26"/>
    <circle cx="701.4" cy="81.9" r="1.4" fill="#34d399" opacity="0.41"/>
    <circle cx="651.7" cy="753.4" r="1.4" fill="#10b981" opacity="0.33"/>
    <circle cx="433.6" cy="464.5" r="1.4" fill="#10b981" opacity="0.42"/>
    <circle cx="517.1" cy="414.5" r="1.5" fill="#10b981" opacity="0.34"/>
    <circle cx="485.8" cy="290.9" r="1.5" fill="#34d399" opacity="0.41"/>
    <circle cx="460.5" cy="31.1" r="1.5" fill="#34d399" opacity="0.44"/>
    <circle cx="699.5" cy="667" r="1.5" fill="#34d399" opacity="0.3"/>
    <circle cx="646.7" cy="688.4" r="1.5" fill="#34d399" opacity="0.39"/>
    <circle cx="269.6" cy="328.6" r="1.5" fill="#6ee7b7" opacity="0.32"/>
    <circle cx="264.6" cy="830.4" r="1.5" fill="#10b981" opacity="0.27"/>
    <circle cx="967.6" cy="392.1" r="1.5" fill="#34d399" opacity="0.4"/>
    <circle cx="659.5" cy="971.8" r="1.5" fill="#34d399" opacity="0.3"/>
    <circle cx="843.1" cy="230.8" r="1.5" fill="#10b981" opacity="0.38"/>
    <circle cx="89.6" cy="675.1" r="1.5" fill="#10b981" opacity="0.31"/>
    <circle cx="8" cy="746.2" r="1.6" fill="#10b981" opacity="0.36"/>
    <circle cx="646.2" cy="29.9" r="1.6" fill="#10b981" opacity="0.29"/>
    <circle cx="729.5" cy="165.7" r="1.6" fill="#10b981" opacity="0.37"/>
    <circle cx="320.5" cy="693.8" r="1.6" fill="#34d399" opacity="0.29"/>
    <circle cx="205" cy="537.4" r="1.6" fill="#34d399" opacity="0.31"/>
    <circle cx="454.9" cy="901.9" r="1.6" fill="#10b981" opacity="0.44"/>
    <circle cx="831.2" cy="232.8" r="1.6" fill="#10b981" opacity="0.3"/>
    <circle cx="557" cy="134.2" r="1.6" fill="#34d399" opacity="0.38"/>
    <circle cx="706.4" cy="860.9" r="1.6" fill="#10b981" opacity="0.31"/>
    <circle cx="291" cy="681" r="1.6" fill="#6ee7b7" opacity="0.35"/>
    <circle cx="382.4" cy="326.2" r="1.6" fill="#34d399" opacity="0.4"/>
    <circle cx="320.2" cy="523.3" r="1.6" fill="#34d399" opacity="0.39"/>
    <circle cx="746.4" cy="879.5" r="1.6" fill="#10b981" opacity="0.4"/>
    <circle cx="563.3" cy="431.9" r="1.6" fill="#10b981" opacity="0.3"/>
    <circle cx="1016" cy="697.3" r="1.6" fill="#10b981" opacity="0.28"/>
    <circle cx="718.6" cy="571.2" r="1.6" fill="#10b981" opacity="0.33"/>
    <circle cx="235.7" cy="336.9" r="1.6" fill="#6ee7b7" opacity="0.36"/>
    <circle cx="661.8" cy="471.9" r="1.6" fill="#10b981" opacity="0.33"/>
    <circle cx="482.1" cy="327.6" r="1.7" fill="#10b981" opacity="0.38"/>
    <circle cx="530.9" cy="628.4" r="1.7" fill="#10b981" opacity="0.36"/>
    <circle cx="744.9" cy="411.8" r="1.7" fill="#34d399" opacity="0.31"/>
    <circle cx="511.8" cy="692.4" r="1.7" fill="#10b981" opacity="0.45"/>
    <circle cx="433.1" cy="194.6" r="1.7" fill="#10b981" opacity="0.36"/>
    <circle cx="192.5" cy="511.5" r="1.7" fill="#34d399" opacity="0.32"/>
    <circle cx="582.8" cy="420.1" r="1.7" fill="#34d399" opacity="0.3"/>
    <circle cx="796.6" cy="740.7" r="1.7" fill="#6ee7b7" opacity="0.37"/>
    <circle cx="196.2" cy="400.7" r="1.7" fill="#10b981" opacity="0.31"/>
    <circle cx="522.6" cy="724.2" r="1.7" fill="#10b981" opacity="0.35"/>
    <circle cx="506.9" cy="390.5" r="1.7" fill="#10b981" opacity="0.25"/>
    <circle cx="326.4" cy="310.9" r="1.7" fill="#34d399" opacity="0.37"/>
    <circle cx="716.2" cy="751.5" r="1.7" fill="#10b981" opacity="0.41"/>
    <circle cx="553.4" cy="1016" r="1.7" fill="#34d399" opacity="0.35"/>
    <circle cx="547.3" cy="458" r="1.7" fill="#34d399" opacity="0.26"/>
    <circle cx="291.6" cy="587.8" r="1.7" fill="#6ee7b7" opacity="0.31"/>
    <circle cx="787.7" cy="517.7" r="1.7" fill="#34d399" opacity="0.33"/>
    <circle cx="403.8" cy="579.7" r="1.7" fill="#10b981" opacity="0.36"/>
    <circle cx="197.3" cy="203.5" r="1.7" fill="#10b981" opacity="0.36"/>
    <circle cx="202.9" cy="624.8" r="1.7" fill="#10b981" opacity="0.31"/>
    <circle cx="890.1" cy="291" r="1.7" fill="#10b981" opacity="0.41"/>
    <circle cx="504.9" cy="246.6" r="1.7" fill="#10b981" opacity="0.31"/>
    <circle cx="783.4" cy="617.6" r="1.7" fill="#10b981" opacity="0.33"/>
    <circle cx="622.8" cy="774.4" r="1.7" fill="#6ee7b7" opacity="0.27"/>
    <circle cx="208.7" cy="701.4" r="1.7" fill="#6ee7b7" opacity="0.26"/>
    <circle cx="816.5" cy="270.2" r="1.7" fill="#10b981" opacity="0.26"/>
    <circle cx="554" cy="545.7" r="1.8" fill="#10b981" opacity="0.39"/>
    <circle cx="8" cy="488.3" r="1.8" fill="#34d399" opacity="0.4"/>
    <circle cx="589.5" cy="773.1" r="1.8" fill="#6ee7b7" opacity="0.43"/>
    <circle cx="614.4" cy="327.9" r="1.8" fill="#10b981" opacity="0.33"/>
    <circle cx="198.6" cy="898.4" r="1.8" fill="#10b981" opacity="0.27"/>
    <circle cx="394.4" cy="665.2" r="1.8" fill="#10b981" opacity="0.43"/>
    <circle cx="705" cy="283.4" r="1.8" fill="#10b981" opacity="0.37"/>
    <circle cx="717.2" cy="276.7" r="1.8" fill="#10b981" opacity="0.36"/>
    <circle cx="515.8" cy="557.5" r="1.8" fill="#10b981" opacity="0.35"/>
    <circle cx="314.3" cy="269.8" r="1.8" fill="#10b981" opacity="0.41"/>
    <circle cx="440" cy="103.1" r="1.8" fill="#10b981" opacity="0.44"/>
    <circle cx="1005.5" cy="383.9" r="1.8" fill="#34d399" opacity="0.28"/>
    <circle cx="549.5" cy="654.8" r="1.8" fill="#10b981" opacity="0.31"/>
    <circle cx="979" cy="416.8" r="1.8" fill="#10b981" opacity="0.31"/>
    <circle cx="473.9" cy="772.6" r="1.8" fill="#6ee7b7" opacity="0.25"/>
    <circle cx="488.5" cy="344.7" r="1.8" fill="#10b981" opacity="0.44"/>
    <circle cx="667.2" cy="321.9" r="1.8" fill="#34d399" opacity="0.44"/>
    <circle cx="346.8" cy="388.2" r="1.8" fill="#10b981" opacity="0.34"/>
    <circle cx="8" cy="576.6" r="1.9" fill="#10b981" opacity="0.44"/>
    <circle cx="742.7" cy="40.4" r="1.9" fill="#34d399" opacity="0.39"/>
    <circle cx="458.4" cy="780" r="1.9" fill="#34d399" opacity="0.34"/>
    <circle cx="326" cy="460.9" r="1.9" fill="#10b981" opacity="0.44"/>
    <circle cx="753" cy="1016" r="1.9" fill="#34d399" opacity="0.35"/>
    <circle cx="732.8" cy="537.2" r="1.9" fill="#34d399" opacity="0.25"/>
    <circle cx="751.9" cy="545" r="1.9" fill="#10b981" opacity="0.41"/>
    <circle cx="644.2" cy="635.9" r="1.9" fill="#34d399" opacity="0.42"/>
    <circle cx="748" cy="403" r="1.9" fill="#10b981" opacity="0.39"/>
    <circle cx="436.7" cy="340.8" r="1.9" fill="#10b981" opacity="0.4"/>
    <circle cx="260.7" cy="552.3" r="1.9" fill="#10b981" opacity="0.39"/>
    <circle cx="637.6" cy="755.2" r="1.9" fill="#10b981" opacity="0.42"/>
    <circle cx="310.5" cy="778" r="1.9" fill="#10b981" opacity="0.31"/>
    <circle cx="403.9" cy="518.7" r="1.9" fill="#10b981" opacity="0.39"/>
    <circle cx="1016" cy="611.8" r="1.9" fill="#10b981" opacity="0.43"/>
    <circle cx="530.7" cy="229.7" r="1.9" fill="#10b981" opacity="0.37"/>
    <circle cx="351.8" cy="651.4" r="1.9" fill="#10b981" opacity="0.45"/>
    <circle cx="600.5" cy="683.4" r="1.9" fill="#6ee7b7" opacity="0.26"/>
    <circle cx="421.8" cy="516.3" r="1.9" fill="#10b981" opacity="0.37"/>
    <circle cx="695.8" cy="531" r="1.9" fill="#34d399" opacity="0.28"/>
    <circle cx="370.6" cy="347.7" r="1.9" fill="#10b981" opacity="0.33"/>
    <circle cx="678" cy="660.6" r="1.9" fill="#6ee7b7" opacity="0.29"/>
    <circle cx="553.2" cy="425.2" r="1.9" fill="#34d399" opacity="0.38"/>
    <circle cx="344.5" cy="292.2" r="1.9" fill="#6ee7b7" opacity="0.44"/>
    <circle cx="53.8" cy="688.2" r="1.9" fill="#10b981" opacity="0.25"/>
    <circle cx="658.4" cy="510.7" r="1.9" fill="#6ee7b7" opacity="0.43"/>
    <circle cx="320.1" cy="1016" r="1.9" fill="#10b981" opacity="0.41"/>
    <circle cx="222.8" cy="339.3" r="2" fill="#10b981" opacity="0.36"/>
    <circle cx="112.2" cy="719.9" r="2" fill="#34d399" opacity="0.38"/>
    <circle cx="890.5" cy="430.4" r="2" fill="#10b981" opacity="0.37"/>
    <circle cx="603.4" cy="435.7" r="2" fill="#34d399" opacity="0.33"/>
    <circle cx="811.5" cy="139.5" r="2" fill="#10b981" opacity="0.47"/>
    <circle cx="505.6" cy="722.5" r="2" fill="#34d399" opacity="0.27"/>
    <circle cx="976.2" cy="700.5" r="2" fill="#10b981" opacity="0.43"/>
    <circle cx="703.2" cy="220" r="2.1" fill="#10b981" opacity="0.41"/>
    <circle cx="669.9" cy="166" r="2.1" fill="#10b981" opacity="0.35"/>
    <circle cx="144.9" cy="481" r="2.1" fill="#10b981" opacity="0.43"/>
    <circle cx="543.7" cy="347.7" r="2.1" fill="#6ee7b7" opacity="0.51"/>
    <circle cx="771.5" cy="457.4" r="2.1" fill="#10b981" opacity="0.35"/>
    <circle cx="255.7" cy="627.8" r="2.1" fill="#34d399" opacity="0.36"/>
    <circle cx="630.9" cy="353.9" r="2.1" fill="#34d399" opacity="0.47"/>
    <circle cx="302.2" cy="822.3" r="2.1" fill="#34d399" opacity="0.46"/>
    <circle cx="423.9" cy="589.6" r="2.2" fill="#10b981" opacity="0.49"/>
    <circle cx="439.9" cy="645.6" r="2.2" fill="#34d399" opacity="0.55"/>
    <circle cx="367.7" cy="377.5" r="2.2" fill="#10b981" opacity="0.55"/>
    <circle cx="69" cy="524.8" r="2.2" fill="#10b981" opacity="0.53"/>
    <circle cx="342.2" cy="937.5" r="2.2" fill="#34d399" opacity="0.5"/>
    <circle cx="767.5" cy="500.3" r="2.2" fill="#10b981" opacity="0.45"/>
    <circle cx="24.8" cy="793.7" r="2.2" fill="#10b981" opacity="0.45"/>
    <circle cx="810.4" cy="1016" r="2.2" fill="#34d399" opacity="0.43"/>
    <circle cx="702" cy="447.8" r="2.2" fill="#6ee7b7" opacity="0.49"/>
    <circle cx="296.8" cy="544.3" r="2.2" fill="#6ee7b7" opacity="0.48"/>
    <circle cx="608.2" cy="897.7" r="2.2" fill="#10b981" opacity="0.51"/>
    <circle cx="504.5" cy="889.9" r="2.3" fill="#34d399" opacity="0.42"/>
    <circle cx="490.4" cy="532" r="2.3" fill="#10b981" opacity="0.36"/>
    <circle cx="17.7" cy="530.8" r="2.3" fill="#34d399" opacity="0.46"/>
    <circle cx="817.6" cy="171.4" r="2.3" fill="#10b981" opacity="0.51"/>
    <circle cx="832.4" cy="485.7" r="2.3" fill="#10b981" opacity="0.35"/>
    <circle cx="796.1" cy="559.2" r="2.3" fill="#10b981" opacity="0.45"/>
    <circle cx="491.9" cy="699.2" r="2.4" fill="#34d399" opacity="0.4"/>
    <circle cx="262.9" cy="1016" r="2.4" fill="#10b981" opacity="0.37"/>
    <circle cx="517.9" cy="146.8" r="2.4" fill="#10b981" opacity="0.46"/>
    <circle cx="488.6" cy="508.6" r="2.4" fill="#10b981" opacity="0.46"/>
    <circle cx="611.9" cy="470.7" r="2.5" fill="#10b981" opacity="0.5"/>
    <circle cx="180.4" cy="668.4" r="2.5" fill="#10b981" opacity="0.55"/>
    <circle cx="857.9" cy="706.7" r="2.5" fill="#34d399" opacity="0.49"/>
    <circle cx="599.6" cy="120.6" r="2.5" fill="#34d399" opacity="0.48"/>
    <circle cx="842.8" cy="235.2" r="2.5" fill="#10b981" opacity="0.4"/>
    <circle cx="304.4" cy="765.8" r="2.6" fill="#10b981" opacity="0.49"/>
    <circle cx="380.4" cy="251.5" r="2.6" fill="#6ee7b7" opacity="0.42"/>
    <circle cx="458.4" cy="198.1" r="2.7" fill="#10b981" opacity="0.53"/>
    <circle cx="657" cy="433.3" r="2.7" fill="#10b981" opacity="0.53"/>
    <circle cx="433.4" cy="334.9" r="2.7" fill="#10b981" opacity="0.41"/>
    <circle cx="456.4" cy="861.6" r="2.7" fill="#6ee7b7" opacity="0.46"/>
    <circle cx="252.8" cy="614.4" r="2.8" fill="#34d399" opacity="0.53"/>
    <circle cx="416.6" cy="160.8" r="2.8" fill="#10b981" opacity="0.51"/>
    <circle cx="556" cy="495.2" r="2.8" fill="#34d399" opacity="0.48"/>
    <circle cx="794.6" cy="583.3" r="2.8" fill="#34d399" opacity="0.36"/>
    <circle cx="822.9" cy="142.4" r="2.8" fill="#10b981" opacity="0.37"/>
    <circle cx="492" cy="187.3" r="2.9" fill="#10b981" opacity="0.48"/>
    <circle cx="109" cy="717.3" r="2.9" fill="#6ee7b7" opacity="0.42"/>
    <circle cx="807.6" cy="683.3" r="2.9" fill="#6ee7b7" opacity="0.36"/>
    <circle cx="789.1" cy="712.5" r="3" fill="#10b981" opacity="0.39"/>
    <circle cx="172.4" cy="574.8" r="3" fill="#6ee7b7" opacity="0.36"/>
    <circle cx="500.4" cy="36.6" r="3" fill="#34d399" opacity="0.5"/>
    <circle cx="666" cy="852.1" r="3" fill="#34d399" opacity="0.38"/>
    <circle cx="656.5" cy="1014.8" r="3.1" fill="#10b981" opacity="0.37"/>
    <circle cx="473.2" cy="123.2" r="3.1" fill="#6ee7b7" opacity="0.52"/>
    <circle cx="640.8" cy="953.4" r="3.1" fill="#6ee7b7" opacity="0.45"/>
    <circle cx="886" cy="904.5" r="3.1" fill="#10b981" opacity="0.39"/>
    <circle cx="693.6" cy="586.4" r="3.1" fill="#34d399" opacity="0.38"/>
    <circle cx="650.5" cy="333.7" r="3.1" fill="#34d399" opacity="0.43"/>
    <circle cx="863.9" cy="149.8" r="3.1" fill="#10b981" opacity="0.39"/>
    <circle cx="771.3" cy="589" r="3.2" fill="#10b981" opacity="0.51"/>
    <circle cx="1016" cy="424.7" r="3.2" fill="#10b981" opacity="0.4"/>
    <circle cx="384.4" cy="238.2" r="3.5" fill="#34d399" opacity="0.41"/>
    <circle cx="640.6" cy="812.2" r="3.5" fill="#6ee7b7" opacity="0.51"/>
    <circle cx="674.5" cy="290.6" r="3.6" fill="#34d399" opacity="0.59"/>
    <circle cx="62.7" cy="625.4" r="3.7" fill="#34d399" opacity="0.46"/>
    <circle cx="439.6" cy="158.7" r="3.8" fill="#34d399" opacity="0.59"/>
    <circle cx="371.5" cy="8" r="3.8" fill="#34d399" opacity="0.55"/>
    <circle cx="124.1" cy="462.1" r="3.8" fill="#34d399" opacity="0.6"/>
    <circle cx="370.4" cy="927.4" r="3.9" fill="#10b981" opacity="0.41"/>
    <circle cx="584.1" cy="547.3" r="3.9" fill="#10b981" opacity="0.49"/>
    <circle cx="174" cy="342.4" r="4" fill="#10b981" opacity="0.58"/>
    <circle cx="547.4" cy="262.8" r="4" fill="#10b981" opacity="0.41"/>
    <circle cx="374.4" cy="913.3" r="4" fill="#34d399" opacity="0.41"/>
    <circle cx="406.1" cy="156" r="4.1" fill="#10b981" opacity="0.46"/>
  </g>

  <!-- Main logo: branches + subtle central hub -->
  <g transform="translate(176, 176) scale(14)">
    <path d="M 22.0 44.0 L 26.0 4.0
             M 23.2 32.0 L 6.0 24.0
             M 23.8 26.0 L 41.0 18.0
             M 24.6 18.0 L 10.0 11.0
             M 25.2 12.0 L 36.0 7.0"
          stroke="url(#lineGradApp)" stroke-width="2.3" stroke-linecap="round" fill="none"/>

    <path d="M 22.0 44.0 L 26.0 4.0
             M 23.2 32.0 L 6.0 24.0
             M 23.8 26.0 L 41.0 18.0
             M 24.6 18.0 L 10.0 11.0
             M 25.2 12.0 L 36.0 7.0"
          stroke="#d1fae5" stroke-width="0.5" stroke-linecap="round" fill="none" opacity="0.5"/>

    <g filter="url(#softGlowApp)" opacity="0.35">
      <circle cx="22.0" cy="44.0" r="3.5" fill="#10b981"/>
    </g>
    <circle cx="22.0" cy="44.0" r="2.4" fill="url(#coreDotApp)"/>
    <circle cx="21.4" cy="43.4" r="0.6" fill="#ecfdf5" opacity="0.75"/>
  </g>
</svg>
